<mxfile host="app.diagrams.net" agent="Mozilla/5.0 (Windows NT 10.0; Win64; x64) AppleWebKit/537.36 (KHTML, like Gecko) Chrome/128.0.0.0 Safari/537.36 OPR/114.0.0.0" version="25.0.1">
  <diagram name="PÃ¡gina-1" id="ztTNSRuZ_ZkiS0zX5J_q">
    <mxGraphModel dx="929" dy="509" grid="1" gridSize="10" guides="1" tooltips="1" connect="1" arrows="1" fold="1" page="1" pageScale="1" pageWidth="827" pageHeight="1169" math="0" shadow="0">
      <root>
        <mxCell id="0" />
        <mxCell id="1" parent="0" />
        <mxCell id="TIhZvKdrPmryU-V3T04_-1" value="INICIO" style="strokeWidth=2;html=1;shape=mxgraph.flowchart.start_1;whiteSpace=wrap;" vertex="1" parent="1">
          <mxGeometry x="330" y="70" width="100" height="60" as="geometry" />
        </mxCell>
        <mxCell id="TIhZvKdrPmryU-V3T04_-2" value="FIM" style="strokeWidth=2;html=1;shape=mxgraph.flowchart.start_1;whiteSpace=wrap;" vertex="1" parent="1">
          <mxGeometry x="330" y="480" width="100" height="60" as="geometry" />
        </mxCell>
        <mxCell id="TIhZvKdrPmryU-V3T04_-3" value="NOME" style="html=1;strokeWidth=2;shape=manualInput;whiteSpace=wrap;rounded=1;size=26;arcSize=11;" vertex="1" parent="1">
          <mxGeometry x="330" y="170" width="100" height="50" as="geometry" />
        </mxCell>
        <mxCell id="TIhZvKdrPmryU-V3T04_-8" style="edgeStyle=orthogonalEdgeStyle;rounded=0;orthogonalLoop=1;jettySize=auto;html=1;exitX=0.5;exitY=1;exitDx=0;exitDy=0;" edge="1" parent="1" source="TIhZvKdrPmryU-V3T04_-4" target="TIhZvKdrPmryU-V3T04_-5">
          <mxGeometry relative="1" as="geometry" />
        </mxCell>
        <mxCell id="TIhZvKdrPmryU-V3T04_-4" value="SOBRENOME" style="html=1;strokeWidth=2;shape=manualInput;whiteSpace=wrap;rounded=1;size=26;arcSize=11;" vertex="1" parent="1">
          <mxGeometry x="330" y="250" width="100" height="60" as="geometry" />
        </mxCell>
        <mxCell id="TIhZvKdrPmryU-V3T04_-5" value="NOME SOBRENOME" style="strokeWidth=2;html=1;shape=mxgraph.flowchart.display;whiteSpace=wrap;" vertex="1" parent="1">
          <mxGeometry x="330" y="370" width="100" height="60" as="geometry" />
        </mxCell>
        <mxCell id="TIhZvKdrPmryU-V3T04_-9" style="edgeStyle=orthogonalEdgeStyle;rounded=0;orthogonalLoop=1;jettySize=auto;html=1;entryX=0.497;entryY=0.22;entryDx=0;entryDy=0;entryPerimeter=0;" edge="1" parent="1" source="TIhZvKdrPmryU-V3T04_-1" target="TIhZvKdrPmryU-V3T04_-3">
          <mxGeometry relative="1" as="geometry" />
        </mxCell>
        <mxCell id="TIhZvKdrPmryU-V3T04_-10" style="edgeStyle=orthogonalEdgeStyle;rounded=0;orthogonalLoop=1;jettySize=auto;html=1;entryX=0.497;entryY=0.206;entryDx=0;entryDy=0;entryPerimeter=0;" edge="1" parent="1" source="TIhZvKdrPmryU-V3T04_-3" target="TIhZvKdrPmryU-V3T04_-4">
          <mxGeometry relative="1" as="geometry" />
        </mxCell>
        <mxCell id="TIhZvKdrPmryU-V3T04_-11" style="edgeStyle=orthogonalEdgeStyle;rounded=0;orthogonalLoop=1;jettySize=auto;html=1;entryX=0.5;entryY=0;entryDx=0;entryDy=0;entryPerimeter=0;" edge="1" parent="1" source="TIhZvKdrPmryU-V3T04_-5" target="TIhZvKdrPmryU-V3T04_-2">
          <mxGeometry relative="1" as="geometry" />
        </mxCell>
      </root>
    </mxGraphModel>
  </diagram>
</mxfile>
